
<svg xmlns="http://www.w3.org/2000/svg" version="1.1" xmlns:xlink="http://www.w3.org/1999/xlink" preserveAspectRatio="none" x="0px" y="0px" width="120px" height="120px" viewBox="0 0 120 120">
<defs/>

<g id="Layer_2">
<g>
<g>
<g>
<path fill="#DC4535" stroke="none" d="
M 115 35.5
Q 115 34.25 114.85 33.2
L 60 66.75 4.45 33.1
Q 4.25 34.2 4.25 35.5
L 4.25 89
Q 4.25 99 14.25 99
L 105 99
Q 115 99 115 89
L 115 35.5
M 85.5 54.75
L 106 88.75 85.5 54.75
M 33 54.25
L 16.25 87.25 33 54.25
M 114.85 33.2
Q 113.75 25.5 105 25.5
L 14.25 25.5
Q 5.55 25.5 4.45 33.1
L 60 66.75 114.85 33.2 Z"/>
</g>
</g>

<g>
<path stroke="#FFFFFF" stroke-width="5" stroke-linejoin="round" stroke-linecap="round" fill="none" d="
M 85.5 54.75
L 106 88.75
M 33 54.25
L 16.25 87.25
M 4.45 33.1
L 60 66.75 114.85 33.2"/>
</g>
</g>
</g>
</svg>
