<?xml version="1.0" encoding="utf-8"?>
<!-- Generator: Adobe Illustrator 16.0.4, SVG Export Plug-In . SVG Version: 6.00 Build 0)  -->
<!DOCTYPE svg PUBLIC "-//W3C//DTD SVG 1.1//EN" "http://www.w3.org/Graphics/SVG/1.1/DTD/svg11.dtd">
<svg version="1.1" id="Ebene_1" xmlns="http://www.w3.org/2000/svg" xmlns:xlink="http://www.w3.org/1999/xlink" x="0px" y="0px"
	 width="1107.34px" height="364.351px" viewBox="0 0 1107.34 364.351" enable-background="new 0 0 1107.34 364.351"
	 xml:space="preserve">
<pattern  x="1906.453" y="6999.983" width="664.868" height="498.651" patternUnits="userSpaceOnUse" id="Unnamed_Pattern_2" viewBox="1 -499.651 664.868 498.651" overflow="visible">
	<g>
		<polygon fill="none" points="1,-1 665.868,-1 665.868,-499.651 1,-499.651 		"/>
		
			<image overflow="visible" width="4000" height="3000" xlink:href="F14125E95535F428.jpg"  transform="matrix(0.1662 0 0 0.1662 1 -499.6514)">
		</image>
		<polygon opacity="0.51" fill="#3A3938" points="665.868,-1 1,-1 1,-499.651 665.868,-499.651 		"/>
	</g>
</pattern>
<g>
	<g>
		<g>
			<polygon fill="#9D9D9C" points="52.924,113.681 221.752,134.104 279.521,74.377 110.692,53.956 			"/>
			<polyline fill="#706F6F" points="79.22,89.147 73.625,110.044 123.141,116.059 120.483,94.042 79.22,89.147 			"/>
			<polyline fill="#706F6F" points="167.62,99.777 162.026,120.815 211.542,126.69 208.883,104.814 167.62,99.487 			"/>
			<polyline fill="#706F6F" points="109.573,57.815 150.837,62.851 153.494,84.868 103.758,78.705 109.573,57.815 			"/>
			
				<pattern  id="SVGID_1_" xlink:href="#Unnamed_Pattern_2" patternTransform="matrix(0.5299 -0.848 0.848 0.5299 7703.1211 -14430.0225)">
			</pattern>
			<path fill="url(#SVGID_1_)" d="M197.834,68.781"/>
			<polyline fill="#706F6F" points="197.834,68.585 239.097,73.481 241.893,95.498 192.221,89.72 197.834,68.585 			"/>
			<polygon fill="#878787" points="110.692,53.956 104.537,56.612 40.336,122.913 52.924,113.681 			"/>
			<polygon fill="#878787" points="40.336,122.913 227.905,145.572 221.752,134.104 52.924,113.681 			"/>
			<polygon fill="#706F6F" points="40.336,122.913 227.905,145.572 227.905,321.813 40.336,298.873 			"/>
			<polygon fill="#B2B2B2" points="227.905,145.572 292.108,79.413 279.521,74.377 221.752,134.104 			"/>
			<polyline fill="#B2B2B2" points="120.483,94.042 123.141,116.059 140.065,98.573 134.61,79.496 120.483,94.042 			"/>
			<polyline fill="#B2B2B2" points="150.837,62.851 153.494,84.868 170.418,67.244 164.822,48.303 150.837,62.851 			"/>
			<polyline fill="#B2B2B2" points="223.011,90.266 208.883,104.814 211.542,126.69 228.466,109.205 223.011,90.266 			"/>
			<polyline fill="#B2B2B2" points="239.097,73.481 241.893,95.498 258.818,78.014 253.224,58.935 239.097,73.481 			"/>
			<polygon fill="#878787" points="227.905,145.572 227.905,321.813 292.108,255.511 292.108,79.413 			"/>
			<polygon fill="#878787" points="134.61,79.496 120.483,94.042 79.22,89.147 93.348,74.601 			"/>
			<polygon fill="#878787" points="223.011,90.266 208.883,104.814 167.62,99.777 181.748,85.231 			"/>
			<polygon fill="#878787" points="164.822,48.303 150.837,62.851 109.573,57.815 123.56,43.269 			"/>
			<polygon fill="#878787" points="253.224,58.935 239.097,73.481 197.834,68.585 211.961,54.038 			"/>
		</g>
		<g>
			<path d="M331.053,204.212v-58.64h18.399c4.646,0,8.605,1.639,11.884,4.917c3.279,3.307,4.918,7.267,4.918,11.884
				c0,4.125-1.326,7.745-3.975,10.859c2.268,1.557,4.041,3.552,5.326,5.983c1.366,2.487,2.05,5.15,2.05,7.991
				c0,4.699-1.666,8.702-5,12.008c-3.307,3.332-7.294,4.999-11.965,4.999H331.053z M339.944,170.283h9.508
				c2.187,0,4.043-0.778,5.574-2.336c1.556-1.53,2.335-3.387,2.335-5.574c0-2.185-0.779-4.043-2.335-5.572
				c-1.531-1.558-3.388-2.337-5.574-2.337h-9.508V170.283z M339.944,195.32h12.746c2.211,0,4.11-0.792,5.695-2.377
				c1.558-1.585,2.336-3.497,2.336-5.737c0-2.212-0.778-4.098-2.336-5.654c-1.585-1.585-3.484-2.378-5.695-2.378h-12.746V195.32z"/>
			<path d="M406.66,145.572v8.892h-21.023v15.899h16.228v8.893h-16.228v16.064h21.023v8.892h-29.915v-58.64H406.66z"/>
			<path d="M445.508,145.572v8.892h-12.417v49.748h-8.934v-49.748h-12.416v-8.892H445.508z"/>
			<path d="M452.719,196.017c-5.847-5.846-8.769-12.895-8.769-21.145c0-8.251,2.922-15.299,8.769-21.146
				c5.846-5.845,12.894-8.77,21.146-8.77c8.248,0,15.297,2.924,21.144,8.77c5.846,5.847,8.77,12.895,8.77,21.146
				c0,8.25-2.924,15.298-8.77,21.145c-5.847,5.847-12.896,8.771-21.144,8.771C465.612,204.788,458.564,201.864,452.719,196.017z
				 M459.03,160.037c-4.098,4.098-6.146,9.044-6.146,14.835c0,5.792,2.049,10.735,6.146,14.833
				c4.097,4.099,9.042,6.149,14.835,6.149c5.789,0,10.736-2.05,14.833-6.149c4.098-4.097,6.146-9.041,6.146-14.833
				c0-5.792-2.049-10.738-6.146-14.835c-4.097-4.098-9.044-6.146-14.833-6.146C468.072,153.891,463.127,155.939,459.03,160.037z"/>
			<path d="M553.362,145.572v58.641h-9.302l-25.079-41.923v41.923l-8.892-0.001v-58.64h9.302l25.037,41.922v-41.922H553.362z"/>
			<path d="M560.165,169.053h27.087v8.892h-27.087V169.053z"/>
			<path d="M613.312,204.746c-3.88-0.163-7.458-1.202-10.736-3.115c-3.715-2.157-6.243-5.054-7.582-8.688l8.36-3.072
				c0.684,1.802,2.091,3.263,4.221,4.385c1.886,0.955,3.935,1.488,6.147,1.598c3.413,0.136,6.241-0.697,8.481-2.5
				c1.887-1.53,2.884-3.278,2.992-5.246c0.163-3.743-3.757-6.734-11.761-8.974c-12.54-3.524-18.618-9.492-18.235-17.907
				c0.246-5.901,2.772-10.312,7.58-13.237c3.661-2.24,8.059-3.237,13.196-2.992c6.228,0.273,11.228,2.445,14.998,6.517l-6.516,6.065
				c-2.132-2.295-5.096-3.525-8.893-3.689c-2.677-0.109-4.959,0.232-6.844,1.024c-2.95,1.258-4.493,3.498-4.631,6.723
				c-0.164,3.687,3.757,6.651,11.762,8.892c7.211,2.021,12.32,4.999,15.325,8.932c2.076,2.732,3.047,5.752,2.911,9.058
				c-0.221,4.644-2.323,8.579-6.312,11.802c-3.717,2.978-8.169,4.467-13.359,4.467C614.036,204.788,613.666,204.771,613.312,204.746
				z"/>
			<path d="M672.894,145.572v8.892h-12.417v49.749h-8.932v-49.749h-12.417v-8.892H672.894z"/>
			<path d="M716.782,145.572v58.641h-8.933v-13.688h-19.916l-8.646,13.688h-10.532l37.086-58.641H716.782z M693.548,181.633h14.302
				v-22.579L693.548,181.633z"/>
			<path d="M735.797,204.213h-8.893v-58.641h21.638c4.671,0,8.659,1.667,11.965,5c3.333,3.306,5,7.307,5,12.006
				c0,4.672-1.667,8.662-5,11.966c-3.306,3.306-7.294,4.958-11.965,4.958h-12.745V204.213z M735.797,170.61h12.745
				c2.212,0,4.111-0.793,5.695-2.376c1.558-1.557,2.335-3.443,2.335-5.655c0-2.239-0.777-4.151-2.335-5.737
				c-1.584-1.583-3.483-2.377-5.695-2.377h-12.745V170.61z"/>
			<path d="M802.592,145.572v8.892H781.57v15.899h16.228v8.893H781.57v16.065h21.021v8.892h-29.915v-58.641H802.592z"/>
			<path d="M818.614,145.572v49.749h21.022v8.892h-29.915v-58.641H818.614z"/>
			<path d="M846.891,204.213v-58.641h18.399c4.644,0,8.604,1.639,11.884,4.917c3.277,3.307,4.917,7.268,4.917,11.884
				c0,4.125-1.325,7.745-3.975,10.859c2.267,1.557,4.044,3.552,5.326,5.983c1.366,2.487,2.051,5.15,2.051,7.992
				c0,4.699-1.667,8.701-5,12.006c-3.307,3.333-7.294,5-11.967,5H846.891z M855.782,170.283h9.508c2.185,0,4.043-0.778,5.573-2.336
				c1.557-1.53,2.336-3.387,2.336-5.574c0-2.185-0.779-4.042-2.336-5.572c-1.53-1.558-3.389-2.337-5.573-2.337h-9.508V170.283z
				 M855.782,195.321h12.744c2.213,0,4.112-0.793,5.697-2.378c1.556-1.584,2.335-3.496,2.335-5.736c0-2.213-0.779-4.1-2.335-5.656
				c-1.585-1.584-3.484-2.378-5.697-2.378h-12.744V195.321z"/>
			<path d="M901.474,145.572v49.749h21.022v8.892h-29.915v-58.641H901.474z"/>
			<path d="M930.978,196.018c-5.846-5.847-8.769-12.896-8.769-21.146c0-8.251,2.923-15.299,8.769-21.146
				c5.848-5.845,12.896-8.77,21.146-8.77c8.25,0,15.298,2.924,21.146,8.77c5.846,5.847,8.769,12.895,8.769,21.146
				c0,8.25-2.923,15.298-8.769,21.146c-5.848,5.846-12.896,8.77-21.146,8.77C943.873,204.788,936.825,201.864,930.978,196.018z
				 M937.289,160.037c-4.098,4.098-6.146,9.044-6.146,14.835c0,5.792,2.049,10.735,6.146,14.834s9.042,6.147,14.835,6.147
				c5.791,0,10.736-2.049,14.834-6.147s6.146-9.042,6.146-14.834c0-5.792-2.048-10.738-6.146-14.835s-9.043-6.146-14.834-6.146
				C946.331,153.891,941.387,155.939,937.289,160.037z"/>
			<path d="M1016.255,195.854c3.551,0,6.87-0.833,9.958-2.5v9.711c-3.224,1.148-6.543,1.723-9.958,1.723
				c-8.25,0-15.298-2.923-21.146-8.77c-5.846-5.847-8.769-12.896-8.769-21.146c0-8.251,2.923-15.299,8.769-21.146
				c5.848-5.845,12.896-8.77,21.146-8.77c3.415,0,6.734,0.561,9.958,1.681v9.753c-3.088-1.694-6.407-2.542-9.958-2.542
				c-5.791,0-10.735,2.063-14.834,6.187c-4.098,4.098-6.146,9.044-6.146,14.835c0,5.792,2.049,10.735,6.146,14.834
				C1005.52,193.805,1010.464,195.854,1016.255,195.854z"/>
			<path d="M1074.772,145.572l-23.44,29.177l24.26,29.464h-11.555l-18.4-22.375l-2.746,3.402v18.973h-8.892v-58.641h8.892v25.447
				l20.49-25.447H1074.772z"/>
			<path d="M355.865,269.953l-16.397-20.09l-4.173,4.281v15.81h-3.959v-38.895h3.959v18.59l18.243-18.59h4.735l-16.238,16.292
				l18.618,22.603H355.865z"/>
			<path d="M401.181,250.318c0,3.033-0.419,5.792-1.258,8.28c-0.839,2.486-2.048,4.611-3.624,6.366
				c-1.579,1.757-3.5,3.121-5.765,4.094c-2.267,0.97-4.834,1.456-7.704,1.456c-3.05,0-5.717-0.503-7.999-1.511
				c-2.282-1.006-4.19-2.406-5.725-4.199c-1.533-1.793-2.684-3.922-3.45-6.395c-0.768-2.469-1.15-5.166-1.15-8.091
				c0-3.03,0.401-5.772,1.204-8.225c0.802-2.452,1.979-4.535,3.531-6.247c1.55-1.712,3.463-3.035,5.737-3.973
				c2.273-0.935,4.891-1.404,7.852-1.404c2.941,0,5.554,0.473,7.839,1.417c2.28,0.946,4.201,2.283,5.762,4.013
				c1.562,1.73,2.743,3.812,3.546,6.245C400.779,244.581,401.181,247.305,401.181,250.318z M397.062,250.318
				c0-2.479-0.305-4.737-0.91-6.782c-0.605-2.041-1.512-3.779-2.715-5.216c-1.204-1.434-2.694-2.545-4.468-3.331
				c-1.776-0.782-3.821-1.175-6.139-1.175c-2.373,0-4.449,0.394-6.233,1.175c-1.783,0.786-3.272,1.897-4.467,3.331
				c-1.196,1.437-2.092,3.175-2.688,5.216c-0.599,2.044-0.896,4.303-0.896,6.782c0,2.479,0.307,4.748,0.923,6.807
				c0.614,2.061,1.528,3.84,2.741,5.338s2.702,2.663,4.467,3.491c1.767,0.828,3.816,1.243,6.153,1.243c2.46,0,4.587-0.42,6.38-1.257
				c1.792-0.837,3.267-2.005,4.426-3.503c1.161-1.498,2.021-3.282,2.582-5.35C396.78,255.018,397.062,252.762,397.062,250.318z"/>
			<path d="M438.818,269.953l-25.387-34.159c0.035,0.783,0.071,1.586,0.107,2.406c0.018,0.715,0.03,1.481,0.039,2.301
				c0.011,0.82,0.015,1.597,0.015,2.327v27.125h-3.612v-38.895h4.522l25.599,34.375c-0.019-0.767-0.054-1.561-0.107-2.382
				c-0.054-0.712-0.085-1.519-0.093-2.42c-0.01-0.9-0.014-1.814-0.014-2.743v-26.829h3.638v38.895H438.818z"/>
			<path d="M458.078,234.404v15.754h19.365v3.343h-19.365v16.452h-3.96v-38.895h24.074v3.345H458.078z"/>
			<path d="M486.109,269.953v-38.895h3.96v38.895H486.109z"/>
			<path d="M516.767,270.514c-3.031,0-5.671-0.503-7.918-1.511c-2.246-1.006-4.11-2.406-5.592-4.199
				c-1.48-1.793-2.58-3.922-3.303-6.395c-0.724-2.469-1.084-5.166-1.084-8.091c0-3.03,0.36-5.772,1.084-8.225
				c0.723-2.452,1.819-4.535,3.29-6.247c1.472-1.712,3.304-3.035,5.498-3.973c2.192-0.935,4.777-1.403,7.756-1.403
				c2.177,0,4.08,0.25,5.712,0.75c1.632,0.499,3.05,1.154,4.253,1.966c1.205,0.812,2.212,1.743,3.023,2.794
				c0.81,1.052,1.494,2.131,2.047,3.237l-3.611,1.258c-0.446-0.892-0.996-1.741-1.645-2.542c-0.652-0.803-1.438-1.511-2.354-2.126
				c-0.919-0.617-1.989-1.102-3.211-1.458c-1.222-0.357-2.626-0.536-4.214-0.536c-2.371,0-4.413,0.394-6.125,1.175
				c-1.712,0.786-3.121,1.897-4.227,3.331c-1.105,1.437-1.922,3.175-2.447,5.216c-0.527,2.044-0.79,4.303-0.79,6.782
				c0,2.479,0.29,4.748,0.869,6.807c0.58,2.061,1.445,3.84,2.597,5.338c1.149,1.498,2.594,2.663,4.332,3.491
				c1.739,0.828,3.759,1.243,6.06,1.243c1.479,0,2.834-0.14,4.067-0.426c1.229-0.287,2.343-0.656,3.342-1.111
				c0.999-0.455,1.872-0.958,2.621-1.511s1.363-1.107,1.848-1.658v-8.401h-11.691v-3.102h15.407v13.027
				c-0.785,0.874-1.697,1.707-2.741,2.502c-1.043,0.792-2.217,1.483-3.518,2.071c-1.303,0.589-2.732,1.057-4.293,1.404
				C520.248,270.342,518.567,270.514,516.767,270.514z"/>
			<path d="M556.703,270.514c-2.104,0-4.075-0.283-5.911-0.855c-1.839-0.569-3.43-1.444-4.775-2.621s-2.412-2.674-3.196-4.493
				c-0.785-1.819-1.177-3.987-1.177-6.502v-24.984h3.986v24.61c0,2.015,0.288,3.749,0.868,5.203c0.579,1.455,1.379,2.644,2.395,3.57
				c1.018,0.93,2.202,1.62,3.557,2.076c1.355,0.452,2.812,0.679,4.36,0.679c1.517,0,2.979-0.235,4.387-0.708
				c1.41-0.472,2.663-1.191,3.759-2.154c1.098-0.962,1.98-2.193,2.649-3.691c0.667-1.498,1.003-3.273,1.003-5.323v-24.263h3.96
				v24.423c0,2.569-0.416,4.792-1.245,6.674c-0.83,1.881-1.957,3.436-3.384,4.668c-1.426,1.229-3.104,2.154-5.029,2.769
				C560.983,270.208,558.914,270.514,556.703,270.514z"/>
			<path d="M606.808,269.953l-10.595-16.665h-9.309v16.665h-3.959v-38.895h13.803c2.104,0,3.993,0.251,5.659,0.749
				c1.666,0.5,3.074,1.214,4.228,2.141c1.149,0.928,2.033,2.065,2.647,3.409c0.614,1.349,0.921,2.887,0.921,4.616
				c0,1.213-0.19,2.412-0.573,3.598c-0.384,1.187-0.977,2.273-1.781,3.263c-0.801,0.991-1.835,1.83-3.102,2.514
				c-1.267,0.688-2.782,1.164-4.547,1.432l11.314,17.173H606.808z M606.165,242c0-1.267-0.223-2.381-0.669-3.345
				c-0.446-0.962-1.096-1.773-1.951-2.434c-0.855-0.66-1.883-1.154-3.079-1.485c-1.194-0.329-2.547-0.496-4.064-0.496h-9.497v15.917
				h9.685c1.658,0,3.093-0.214,4.306-0.642c1.214-0.427,2.205-1.003,2.972-1.724c0.765-0.726,1.34-1.589,1.724-2.596
				C605.973,244.19,606.165,243.122,606.165,242z"/>
			<path d="M644.634,269.953l-4.603-12.039h-17.414l-4.548,12.039h-4.146l15.116-38.895h4.68l15.088,38.895H644.634z
				 M633.772,241.037c-0.304-0.786-0.597-1.575-0.882-2.367c-0.287-0.793-0.542-1.508-0.764-2.139
				c-0.222-0.635-0.397-1.157-0.521-1.566c-0.143-0.41-0.23-0.642-0.269-0.696c-0.018,0.088-0.093,0.349-0.228,0.777
				c-0.135,0.427-0.312,0.958-0.534,1.591c-0.224,0.633-0.475,1.333-0.749,2.098c-0.275,0.768-0.567,1.535-0.87,2.302l-5.188,13.668
				h15.193L633.772,241.037z"/>
			<path d="M667.29,234.404v35.549h-4.038v-35.549H649.58v-3.345h31.351v3.345H667.29z"/>
			<path d="M721.726,250.318c0,3.034-0.419,5.792-1.256,8.281c-0.841,2.487-2.049,4.61-3.625,6.366
				c-1.581,1.758-3.502,3.121-5.764,4.094c-2.267,0.971-4.835,1.456-7.706,1.456c-3.05,0-5.716-0.502-7.999-1.511
				c-2.283-1.006-4.191-2.406-5.725-4.198c-1.532-1.794-2.683-3.924-3.449-6.395c-0.769-2.47-1.15-5.167-1.15-8.093
				c0-3.029,0.401-5.772,1.204-8.225c0.801-2.451,1.979-4.535,3.53-6.247c1.551-1.713,3.463-3.035,5.738-3.974
				c2.274-0.935,4.89-1.403,7.851-1.403c2.941,0,5.554,0.472,7.838,1.418c2.283,0.946,4.204,2.282,5.764,4.013
				c1.562,1.73,2.742,3.812,3.544,6.245C721.324,244.581,721.726,247.305,721.726,250.318z M717.606,250.318
				c0-2.479-0.305-4.737-0.91-6.781c-0.605-2.041-1.511-3.779-2.715-5.217c-1.203-1.434-2.695-2.545-4.469-3.329
				c-1.773-0.784-3.819-1.178-6.138-1.178c-2.371,0-4.45,0.394-6.232,1.178c-1.785,0.783-3.273,1.895-4.467,3.329
				c-1.194,1.438-2.093,3.176-2.688,5.217c-0.6,2.043-0.897,4.302-0.897,6.781c0,2.48,0.307,4.749,0.923,6.808
				c0.617,2.06,1.529,3.839,2.744,5.338c1.21,1.497,2.7,2.662,4.467,3.49c1.765,0.83,3.813,1.243,6.151,1.243
				c2.462,0,4.589-0.418,6.38-1.257c1.792-0.836,3.268-2.004,4.428-3.502c1.159-1.499,2.02-3.282,2.58-5.351
				C717.325,255.019,717.606,252.762,717.606,250.318z"/>
			<path d="M754.388,269.953l-10.593-16.665h-9.309v16.665h-3.96v-38.895h13.804c2.104,0,3.99,0.251,5.657,0.749
				c1.666,0.5,3.075,1.214,4.227,2.141c1.15,0.928,2.034,2.065,2.648,3.409c0.614,1.349,0.922,2.887,0.922,4.616
				c0,1.213-0.191,2.412-0.572,3.598c-0.386,1.187-0.979,2.273-1.782,3.263c-0.8,0.991-1.837,1.83-3.103,2.514
				c-1.266,0.688-2.783,1.164-4.546,1.432l11.313,17.173H754.388z M753.746,242c0-1.267-0.224-2.381-0.67-3.345
				c-0.446-0.962-1.095-1.773-1.951-2.434c-0.856-0.66-1.882-1.154-3.077-1.485c-1.195-0.329-2.551-0.496-4.067-0.496h-9.494v15.917
				h9.684c1.658,0,3.092-0.214,4.307-0.642c1.213-0.427,2.202-1.003,2.97-1.724c0.764-0.726,1.341-1.589,1.723-2.596
				C753.555,244.19,753.746,243.122,753.746,242z"/>
		</g>
	</g>
</g>
</svg>
